<svg id="Layer_1" data-name="Layer 1" xmlns="http://www.w3.org/2000/svg" xmlns:xlink="http://www.w3.org/1999/xlink" viewBox="0 0 323.02 208.21"><defs><style>.cls-1,.cls-10,.cls-11,.cls-12,.cls-4{fill:none;}.cls-1,.cls-4{stroke:#000;}.cls-1{stroke-linecap:square;stroke-linejoin:bevel;}.cls-2{fill:#e3007e;}.cls-3,.cls-5{fill:#fff;}.cls-10,.cls-11,.cls-12,.cls-4,.cls-5,.cls-6,.cls-9{stroke-miterlimit:10;}.cls-11,.cls-12,.cls-5,.cls-6,.cls-9{stroke:#fff;}.cls-6{fill:url(#linear-gradient);}.cls-7{fill:#ce165c;}.cls-8{fill:#fafeff;}.cls-9{fill:url(#linear-gradient-2);}.cls-10{stroke:#ce165c;}.cls-12{stroke-linecap:round;}</style><linearGradient id="linear-gradient" x1="-221.58" y1="160.82" x2="-235.6" y2="162.71" gradientTransform="matrix(-1.14, 0, 0, 1, 410.19, 5.36)" gradientUnits="userSpaceOnUse"><stop offset="0" stop-color="#ebbbd8"/><stop offset="1" stop-color="#e5278f"/></linearGradient><linearGradient id="linear-gradient-2" x1="1758.82" y1="6.19" x2="1772.52" y2="6.19" gradientTransform="matrix(1.12, 0.15, -0.13, 0.99, -1331.78, -108.39)" gradientUnits="userSpaceOnUse"><stop offset="0" stop-color="#e5278f"/><stop offset="1" stop-color="#ebbbd8"/></linearGradient></defs><title>Logo</title><path class="cls-1" d="M711,123.46l-.06-.1C711,123.38,711.05,123.41,711,123.46Z" transform="translate(-440 -103)"/><path class="cls-2" d="M443,266.68s7.62,18.86,20.06,29.69c0,0,13.24,13.64,41.32,11.63,0,0,0,2,11.23,3.21H758.74s9.63-11.63,0-21.26c0,0-1.2-12.84-15.25-11.63,0,0-6.82-7.63-19.25-1.61,0,0-8-29.28-12.84-33.7,0,0,10-24.87,10-35.3,0,0-5.22-4-4.81-8.83,0,0,2-.4,6,4.82,0,0,1.61-7.22.81-10.84l-4.42-3.2s-.4-6.42,0-6.82c0,0,3.61,2.4,4.82,4.41,0,0,.8-7.62.4-10.43,0,0-3.21-.8-3.61-1.61s2.81-26.48-7.62-38.11c0,0,.4-7.62-.41-8.83,0,0-6.42-3.61-5.21-4.41a24.32,24.32,0,0,1,3.55-.5c-.61-1.07-6.36-10.93-13.18-14.34,0,0-8,2.81-10.83,2,0,0-1.61-.4,4.81-4,0,0-7.62-3.21-8.82-2.81,0,0-4.42,9.23-6.42,8.83,0,0-.81-6.82,0-7.22l2.81-2.81s-8,1.6-11.64,5.62l-7.22-2.81,2,8.82s-1.21,4.42-6.82-9.22c0,0-6.42-1.61-8.83-.4,0,0,3.21,3.61,1.6,5.21,0,0-4.81-.8-7.22-3.21l-5.61,2,4.81,3.61s-7.22.8-9.63-.8c0,0-7.62,2.4-12.43,19.25h2s0,4.82-4,4.82c0,0,.8,2-10.43,10a31.37,31.37,0,0,0-6.42,17.25s-.8,4.81-2,6c0,0-.8,1.2,6-1.61,0,0,1.21,5.22-8.82,8,0,0-2.41,10-3.21,10.43a11.25,11.25,0,0,0,4.81-2.4s0,6.82-5.62,8.42v7.22s-14.44,15.25-38.11,3.21c0,0-1.2-12.83-12.43-12.83A30.72,30.72,0,0,0,518,202.09s-17.25,18.06-20.86,45.34c0,0-4,24.87,1.6,41.32,0,0-7.62,6-21.26,0,0,0-30.49-22.47-26.88-45.74,0,0-2.41-36.91,13.64-54.56a70.73,70.73,0,0,1,30.39-27.63.86.86,0,0,1,.21-.07,26.41,26.41,0,0,1,8.21,0,.53.53,0,0,1,.2.07c.78.38,6.58,2.93,15.15,0a24.14,24.14,0,0,0,11.38-7.68.23.23,0,0,0-.17-.37,16.08,16.08,0,0,0-6.71,1.19.8.8,0,0,1-1.14-.75,5.27,5.27,0,0,1,.27-1.4.79.79,0,0,0-.75-1c-2.38,0-7.69-.26-7.69-1.19,0-1.2,0-2.4,5.93-2.81l.16,0c.66-.19,5.54-1.53,5.54-.78a11.85,11.85,0,0,1-.8,3.61c-.2.33,3.65-1.42,7.81-.9a.76.76,0,0,0,.82-.51c.69-2,3.16-8.15,7.38-10.87a.8.8,0,0,0-.26-1.45c-4-.89-12.38-2.87-16.48-4.89a3.49,3.49,0,0,0-1.09-.31c-1.88-.2-7.6-.7-10.24.42a.48.48,0,0,0,0,.85c.92.53,2.36,1.46,2.08,2,0,0-3.61,4.33-7.41,4.09a.79.79,0,0,1-.73-.73,5.83,5.83,0,0,1,1.06-3.68.24.24,0,0,0-.32-.35c-2,1.15-6.61,4-7.85,7.09,0,0-4.74,9.49-9.24,12a6.28,6.28,0,0,0-1.67,1.26c-1.07,1.19-4.47,4.07-15.16,10.85,0,0-17.25,18.05-20.06,26.48,0,0-8.83,12-12.44,36.11C440.6,227,438.19,255.85,443,266.68Z" transform="translate(-440 -103)"/><path class="cls-3" d="M653.63,200.39s2,.87,9.21.69c0,0,30.86,2.78,35-21.37a44.1,44.1,0,0,0-.7-16.29s8.28-21,2-37.26c0,0-15.23-.88-27.37,15.2,0,0-8.31-3.88-16.4-1.72,0,0-6.79-13.86-24.75-17.23a42.26,42.26,0,0,0-3.42,32.4S614.88,194.76,653.63,200.39Z" transform="translate(-440 -103)"/><path class="cls-4" d="M655.78,150.49" transform="translate(-440 -103)"/><path class="cls-5" d="M665.45,174.18s-.19-21.89,13.32-20.15c0,0,10.45,1.64,4.77,15.46C683.54,169.49,678.87,179,665.45,174.18Z" transform="translate(-440 -103)"/><path class="cls-6" d="M677.35,175a11.24,11.24,0,0,0,2.66-5.17c1-5-2-11.31-14.24-8.32a35.78,35.78,0,0,0-2.39,12.61S672.66,176.7,677.35,175Z" transform="translate(-440 -103)"/><path class="cls-7" d="M676.39,175.14s5.19-7.53-3.57-10.61c0,0-.82,3.94-4.45.56a11.7,11.7,0,0,0-2.65,2.47s-.5,1.4-.66,6.52C665.06,174.08,673.13,176.9,676.39,175.14Z" transform="translate(-440 -103)"/><ellipse class="cls-8" cx="670.36" cy="165.22" rx="2.52" ry="2.49" transform="translate(-451.21 -47.97) rotate(-4.66)"/><path class="cls-5" d="M655.11,172.7s3.59-20.33-9.25-20.82c0,0-10-.11-6.85,13.65C639,165.53,641.88,175.08,655.11,172.7Z" transform="translate(-440 -103)"/><path class="cls-9" d="M644.36,171.91s-2.29-2.58-2.12-5.53c0-4.9,3.66-10.18,14.45-5.51a34.15,34.15,0,0,1,.23,12.08S648.42,174.23,644.36,171.91Z" transform="translate(-440 -103)"/><path class="cls-7" d="M645.06,172s-3.43-7.34,4.67-8.74a8.36,8.36,0,0,1,3.8,1.14,10.27,10.27,0,0,1,2,2.54s.23,1.29-.38,5.79C655.11,172.7,647.65,174,645.06,172Z" transform="translate(-440 -103)"/><ellipse class="cls-8" cx="646.12" cy="164.66" rx="2.35" ry="2.38" transform="translate(-111.67 647.83) rotate(-75.83)"/><path class="cls-10" d="M670.82,183.47s2.54,8.51-6.67,7.82c0,0-6,.21-5.38-7.39,0,0,1.4,6.46-5.84,7,0,0-8-.65-4.93-9.39" transform="translate(-440 -103)"/><path class="cls-7" d="M663.41,177.58c-1.53-.42-5.58-1.35-8.72-.46a.34.34,0,0,0-.22.41c.27,1,1.32,4.24,3.93,5.89a.32.32,0,0,0,.35,0c.79-.51,4-2.7,5-5A.59.59,0,0,0,663.41,177.58Z" transform="translate(-440 -103)"/><path class="cls-7" d="M699.29,126.65s-17.11,14.63-18.18,23" transform="translate(-440 -103)"/><path class="cls-7" d="M646.9,146.4c1.37-5.27-16.12-23.79-16.12-23.79" transform="translate(-440 -103)"/><path class="cls-7" d="M698.82,144.87s-1.6-1.56-2-5.92L695.72,137l.11-1.85-4.06,6c-1,1.49-2,1.52-2,1.52s2.86-10.45,9.07-16l.76.86S698.61,140.44,698.82,144.87Z" transform="translate(-440 -103)"/><path class="cls-7" d="M640.6,138.63s.57,3.7-4.06-5.95a3.33,3.33,0,0,1,.17,2.74s-1.94-6.77-2.13.58a2.87,2.87,0,0,0-.43,2.45s-.69-.86-.71.72c0,0-.23,4.42-.39,4.73,0,0-1.75-21.15-2.35-21.44C630.7,122.46,640.28,131.32,640.6,138.63Z" transform="translate(-440 -103)"/><polygon class="cls-3" points="272 40.32 267.99 36.31 267.59 42.33 271.2 44.33 272 40.32"/><path class="cls-3" d="M707.19,153.75s6,1.2,6.42,6c0,0,.8,4.81-2.41,11.23C711.2,171,710.4,155.35,707.19,153.75Z" transform="translate(-440 -103)"/><polygon class="cls-3" points="272 116.54 268.79 112.93 263.98 114.54 270 121.36 272 116.54"/><path class="cls-3" d="M701.57,225.56H696s1.21,6.42,6.42,9.63Z" transform="translate(-440 -103)"/><path class="cls-3" d="M700.77,204.7s2.41,11.23-10,14.84v-2.8S698.76,202.69,700.77,204.7Z" transform="translate(-440 -103)"/><path class="cls-3" d="M688.73,207.51l-5.21,2.41.4,7.62S688.33,212.72,688.73,207.51Z" transform="translate(-440 -103)"/><path class="cls-3" d="M679.11,216.74l-5.62,1.6-.8,7.62S678.3,222.35,679.11,216.74Z" transform="translate(-440 -103)"/><path class="cls-3" d="M691.94,232.78h-3.21s2,8,4.82,10h7.22S692.34,237.2,691.94,232.78Z" transform="translate(-440 -103)"/><path class="cls-3" d="M687.53,243.21s-6.82-4.81-9.23-8.42h-4.41s.8,6.42,9.23,8.42Z" transform="translate(-440 -103)"/><path class="cls-3" d="M669.48,240h-6.42s3.61,10,14,11.24C677.1,251.24,669.08,243.21,669.48,240Z" transform="translate(-440 -103)"/><path class="cls-3" d="M666.27,222.75s-4.42-2.81-5.22-4.81a12.13,12.13,0,0,0,3.61,11.23S664.66,223.15,666.27,222.75Z" transform="translate(-440 -103)"/><path class="cls-3" d="M651,216.33s-.4,6.82-2.4,10c0,0,4.41-1.2,6.82-4.41S651,216.33,651,216.33Z" transform="translate(-440 -103)"/><path class="cls-3" d="M642.2,209.92s4.41,10-1.21,15.24l-6-.4v-1.61S641.8,220.75,642.2,209.92Z" transform="translate(-440 -103)"/><path class="cls-3" d="M637.38,204.7s-6,3.61-6.42,4.81c0,0,1.21,4-3.21,7.63C627.75,217.14,637,218.74,637.38,204.7Z" transform="translate(-440 -103)"/><polygon class="cls-3" points="183.74 105.71 180.13 102.5 174.51 107.32 181.74 107.32 183.74 105.71"/><path class="cls-3" d="M612.11,199.48s-3.21-1.6-4.82-1.2l-5.61,5.22S610.5,204.7,612.11,199.48Z" transform="translate(-440 -103)"/><path class="cls-3" d="M601.28,214.33l-3.62-2.41-5.61,3.61S598.87,217.54,601.28,214.33Z" transform="translate(-440 -103)"/><path class="cls-3" d="M613.31,220.35l-4.41-2.41-10.43,6.42S608.5,226,613.31,220.35Z" transform="translate(-440 -103)"/><path class="cls-3" d="M588.44,225.16s-5.62,4.81-1.61,8.83C586.83,234,591.25,230.78,588.44,225.16Z" transform="translate(-440 -103)"/><path class="cls-3" d="M619.73,224s-3.21,7.22-7.22,9.22h5.21s5.62-2.8,8.83-7.22A28.86,28.86,0,0,0,619.73,224Z" transform="translate(-440 -103)"/><path class="cls-3" d="M639,234s-5.22-.4-8.43-2c0,0-2,4-8.82,7.62A18.94,18.94,0,0,0,639,234Z" transform="translate(-440 -103)"/><path class="cls-3" d="M656.64,234.39l-8,1.2-7.23,7.62s5.62,2,7.63.4Z" transform="translate(-440 -103)"/><path class="cls-3" d="M654.63,253.24h-4.81a15.84,15.84,0,0,1-3.21,7.22S654.23,259.26,654.63,253.24Z" transform="translate(-440 -103)"/><path class="cls-3" d="M663.86,257.25s-4,6.42,4.81,4.82l4-5.22Z" transform="translate(-440 -103)"/><path class="cls-3" d="M711.6,255.25l-3.61-4h-7.62s-15.25,6-14,18.05c0,0,8.42-14,21.26-13.64,0,0,2,2,4,1.2A1.11,1.11,0,0,0,711.6,255.25Z" transform="translate(-440 -103)"/><path class="cls-3" d="M716,264.48s-3.21-6.82-9.62-2.81-14,11.63-14,11.63-6.41,1.61.41,10.83l.8-5.21s2.81-1.2.4-3.21c0,0-2-2.41,4.41-2.81a85.16,85.16,0,0,0,10-6.82s1.2-2,5.62.4C714,266.48,717.62,267.69,716,264.48Z" transform="translate(-440 -103)"/><path class="cls-3" d="M719.22,274.51s1.21,2.8-2.4,2.4c0,0-15.65,2-16.85,16.45,0,0-1.61,1.2-2-1.6,0,0-3.61-9.23,5.62-10.43,0,0,2.4,0,.8-2.41s3.21-4,3.21-4S713.21,269.29,719.22,274.51Z" transform="translate(-440 -103)"/><path class="cls-3" d="M732.06,306.6s2.41-27.28-15.24-23.27c0,0-2,1.21,2,3.61,0,0-8.82,2.41-4.81,9.63s6.42,8.43,6.42,8.43l-1.61-9.63s2.41-5.62,6.42,0A94.57,94.57,0,0,1,732.06,306.6Z" transform="translate(-440 -103)"/><path class="cls-3" d="M750.92,287.74s5.61,4.82,5.61,5.62,1.21,2.41,0,12a4,4,0,0,1-4,2.4l-.4-12.43s-2-1.61-4,1.6C748.11,297,746.1,290.15,750.92,287.74Z" transform="translate(-440 -103)"/><path class="cls-3" d="M741.29,304.59l4,3.62s3.61-17.26-5.22-26.88c0,0-4-.81-5.61,0a6,6,0,0,1,2.41,4.81s-8.43.8-2,10.83c0,0,.4-4.81,4.41-5.61S741.29,304.59,741.29,304.59Z" transform="translate(-440 -103)"/><path class="cls-3" d="M672.28,310.61s9.63-8-2.4-27.68c0,0-5.62-4.41-11.64-2,0,0-9.22-11.63-20.06,2.81,0,0,12.84-5.21,14.05,0s-5.22,7.63-5.22,7.63-8.42-8.83-14,.4V301s-7.62,2-8,3.61,10.43.81,10.43.81l.8-.4,3.61,5.61,1.6.4L637,298.18s.8-10,7.22-2l1.61,14.44,3.86.6-.25-15s5.21-4,5.21-4.41,2.81,3.21,2.41,4,1.6-.4-2.41,15.24l4.82.2s6.42-16.65,2.4-24.67a7.37,7.37,0,0,1,6.82,5.22s-4-.4-4,2c0,0,.4,2.81,5.22,4,0,0,1.6,4.82-4,13.24Z" transform="translate(-440 -103)"/><path class="cls-3" d="M636.18,282.13s-2.41-7.62-15.65-7.22c0,0-16,.8-15.64,10a18.43,18.43,0,0,1-3.21,1.2s-.4,4.41,2.4,6.82,0,.4,0,.4,1.61-8,6-8.42c0,0-.4-3.21,3.21-5.22s4.82.4,4.82.4l-1.61,2-.4,3.21s-5.22,2-4.81,4.41L610.9,295s3.21,2.8,3.61,2.4.41-8,.41-8a8.89,8.89,0,0,1,2.4-2.81h3.21s1.21-4.41,4.82-6.42C625.35,280.12,632.57,280.52,636.18,282.13Z" transform="translate(-440 -103)"/><path class="cls-3" d="M632.57,285.34s-6-2.41-6.82,2.81l-3.21.8s-3.61,5.21.8,8c0,0,1.2-6.42,2.81-7.22C626.15,289.75,631.77,288.55,632.57,285.34Z" transform="translate(-440 -103)"/><path class="cls-3" d="M601.68,264.88s-5.62,2.81-5.62,6-.4,15.24-.4,15.24,2.81-4.81,3.61-4.81S597.66,268.89,601.68,264.88Z" transform="translate(-440 -103)"/><path class="cls-3" d="M607.29,274.1v-3.2s6.42-6.42,19.66-6.42c0,0,11.64.4,12,8.82,0,0-7.22-4.81-10.43-4v1.61S612.91,267.28,607.29,274.1Z" transform="translate(-440 -103)"/><path class="cls-3" d="M633.37,262.07s-1.6-4.41-3.61-5.22a4.69,4.69,0,0,0-3.61,0s-3.21-4-4.41-3.61-2.81,2.41-2.81,2.41-9.63,0-9.63,7.62h3.21s4.41-6.42,7.22-2l2-.4s2-4,9.22,1.2Z" transform="translate(-440 -103)"/><path class="cls-3" d="M588.84,248.83s-4-6.82-4.41-.8c-.22,3.25-.32,5.1-.37,6.11s0,1.11,0,1.11-5.21.8-2,6.82l1.6,4.41s0-6,1.21-6c0,0,1.2-2.8.4-4.41S590.84,254.85,588.84,248.83Z" transform="translate(-440 -103)"/><path class="cls-3" d="M580.82,243.21s-1.61,4.42-3.21.4.8-5.61.8-5.61l.4-3.21s1.6-3.61,3.21.4S580.82,243.21,580.82,243.21Z" transform="translate(-440 -103)"/><path class="cls-3" d="M575.2,249.63s-5.22-7.62-4.41,1.61-.41,11.63-.41,11.63h-2.8s1.2,7.62,4.41,8.43,0-.4,0-.4v-5.62s-1.2-2.41,3.21-2v-7.62S578.81,252,575.2,249.63Z" transform="translate(-440 -103)"/><path class="cls-3" d="M561.16,242s-5.62-2.41-6.42,2.81l.4,8.42Z" transform="translate(-440 -103)"/><path class="cls-3" d="M579.21,227.17s-6.42-.41-7.62,2.4a3.25,3.25,0,0,1-3.21,3.61l-4.82,7.23s-1.2.8,2.81,2.8c0,0,2.81.81-4,4,0,0,0,10.43,1.2,11.63C563.56,258.86,571.19,229.17,579.21,227.17Z" transform="translate(-440 -103)"/><path class="cls-3" d="M560,231.58V226s9.23-7.62,11.64-7.22Z" transform="translate(-440 -103)"/><path class="cls-3" d="M573.59,311s6.42-9.22,4-15.64a23.75,23.75,0,0,0-6.42-9.63l-12-.4a7,7,0,0,0-8.82-3.61c-6.42,2-4.82,3.61-4.82,3.61l4.82-.4a.82.82,0,0,1,.8,1.2s-4,3.61,2,2.41l1.61-1.21,2.41,3.61s0,1.21-3.62,4.82c0,0,0,7.62,5.62,2l.14,13.44h4.27s2-21.06-1.2-21.46l5.22.4s-4,2-.41,9.23c0,0,1.61-.8,3.21-4.41,0,0,4.42,2.8-2,15.64Z" transform="translate(-440 -103)"/><path class="cls-3" d="M553.13,310.61s-.4-19.66-10-24.87a4.86,4.86,0,0,0-6,2l-4.82,4s-.4,3.61,3.61,2,3.21-2.4,3.21-2.4L541.5,295s-7.62,7.22-.8,10.43c0,0,2-.81,3.61-6.82,0,0,4.81,2.8,5.21,12Z" transform="translate(-440 -103)"/><path class="cls-3" d="M548.32,276.91l-3.61-4a2.3,2.3,0,0,0-3.61,0l-3.61,1.2.4,2.81s-6.82,1.61-5.62,6l9.23-2.81s-.8-5.21,4.41-2.4C545.91,277.72,548.72,278.52,548.32,276.91Z" transform="translate(-440 -103)"/><path class="cls-3" d="M521,278.92s-1.2-3.61-3.61-.8a6.3,6.3,0,0,0-1.21,6s-3.61,2.41-.4,4.42l4.42-5.62S522.24,282.13,521,278.92Z" transform="translate(-440 -103)"/><path class="cls-3" d="M515,270.49s-2.81-5.61-4-1.2a11.59,11.59,0,0,0,.8,8A6.43,6.43,0,0,0,515,270.49Z" transform="translate(-440 -103)"/><path class="cls-3" d="M527.06,275.71l-1.21-6.42s0-2.41,5.22-4a8.24,8.24,0,0,1,10.43.4s.8,2.41.4,2.81-8.42.4-8.42.4-3.21.4-2.41,4Z" transform="translate(-440 -103)"/><path class="cls-3" d="M524.25,263.67l-.8-7.62a9.12,9.12,0,0,1,6.82-2.41,4,4,0,0,0,2.4-2h4s2.8-.4,2,5.61c0,0,.8,1.21-1.6.81C537.09,258.06,531.47,252.84,524.25,263.67Z" transform="translate(-440 -103)"/><path class="cls-3" d="M540.7,242.41s-14.85-5.62-18.86,4.41l-.4,4a42.66,42.66,0,0,1,5.22-2l-.41-1.2s2-3.61,11.24-.81C537.49,246.82,540.3,246.82,540.7,242.41Z" transform="translate(-440 -103)"/><path class="cls-3" d="M543.91,232v5.22s-5.22,3.61-8.83,0v-2.81h-4.41s-6-3.61-5.22.4c0,0,0,4-8.42,4.41,0,0-.81-6,.4-6,0,0,5.21-2.4,5.61-3.61s1.21,1.61,1.21,1.61h3.61s7.62-3.61,12,.4C539.89,231.58,543.91,231.18,543.91,232Z" transform="translate(-440 -103)"/><path class="cls-3" d="M516.63,227.17s3.21-8.43,7.22-8.43c0,0,1.2-.8,4,2s0-.4,0-.4,1.6,1.2,2.41-3.21c0,0,11.63,1.6,15.24,4.41v5.62S527.46,217.14,516.63,227.17Z" transform="translate(-440 -103)"/><path class="cls-3" d="M530.27,213.53s6.82-11.24,15.24-1.21l.4,4S538.69,210.72,530.27,213.53Z" transform="translate(-440 -103)"/><path class="cls-3" d="M530.27,204.7s1.2-6.42,7.22-5.22c0,0,2.4-6.41,10,.41,0,0,.4,3.61,0,4.81C547.52,204.7,537.89,199.89,530.27,204.7Z" transform="translate(-440 -103)"/><path class="cls-3" d="M529.46,139.31l-5.61-3.21a2.09,2.09,0,0,0-2.81,0c-1.61,1.2-3.61,2.4-3.61,2.4s-1.61,1.21.8,1.61S529.46,139.31,529.46,139.31Z" transform="translate(-440 -103)"/><path class="cls-3" d="M507.8,142.52s-4.81-2-6,3.21l-1.2,5.21,9.63-7.22Z" transform="translate(-440 -103)"/><path class="cls-7" d="M698.07,169.47,686.94,175l11.21,2.48s1.85-7,0-7" transform="translate(-440 -103)"/><path class="cls-7" d="M624.93,165.22l8,4.42-8.44,1.78S623.64,164.61,624.93,165.22Z" transform="translate(-440 -103)"/><path class="cls-7" d="M665.19,138.94l-1.45,8-3.06-8.12S665.67,136.55,665.19,138.94Z" transform="translate(-440 -103)"/><polygon class="cls-7" points="247.84 84.12 243.53 76.25 233.78 82.02 235.38 89.24 250.42 89.16 245.09 84.58 247.84 84.12"/><polygon class="cls-7" points="200.85 74.1 188.62 78.2 196.44 80.43 196.25 86.4 203.64 85.63 202.27 79.12 204 74.2 200.85 74.1"/><path class="cls-11" d="M666.37,184.54s39.22,3.63,40.3,7.68" transform="translate(-440 -103)"/><path class="cls-11" d="M666.3,186.94s39,10.86,38.85,15.27" transform="translate(-440 -103)"/><path class="cls-11" d="M653.57,183.33s-42.86-3-46.54-.65" transform="translate(-440 -103)"/><path class="cls-11" d="M653.49,185.74s-44.61,1.81-47.53,5.33" transform="translate(-440 -103)"/><path class="cls-7" d="M657.33,152.87l-6.78-.21s-3.39.11-4.11,1.17-5.44.48-5.44.48l0,.86,9.49.3S647.77,155,657.33,152.87Z" transform="translate(-440 -103)"/><path class="cls-7" d="M665.42,152.93s12,.87,14.89,3.68l-9.6-.3S669.57,154.3,665.42,152.93Z" transform="translate(-440 -103)"/><path class="cls-12" d="M665.07,134.81" transform="translate(-440 -103)"/></svg>